# xmcd
#
# Track frame offsets:
#	150
#	14477
#	28405
#	43894
#	59936
#	75580
#	90424
#	105150
#	119420
#	134196
#	148767
#	164635
#	179867
#	196001
#	210850
#	224747
#	239665
#	254301
#	269838
#	284939
#	297307
#	310767
#	325729
#
# Disc length: 4548 seconds
#
# Revision: 1
# Processed by: cddbd v1.5.1PL0 Copyright (c) Steve Scherf et al.
# Submitted via: audiograbber 1.83.01
#
DISCID=8111c217
DTITLE=Στέλιος Καζαντζίδης - Γιά πάντα Νο 1 (1952-1963)
DYEAR=1900
DGENRE=
TTITLE0=Δεν σε λησμονώ
TTITLE1=Πυρ-γυνή και θάλασσα
TTITLE2=Θλιμμένο δειλινό
TTITLE3=Τα μαλλιά τα γκρίζα
TTITLE4=Βύθισέ μου το μαχαίρι
TTITLE5=Για μπάνιο πάω
TTITLE6=Σαν την καλαμιά στον κάμπο
TTITLE7=Καλύτερα μιά μαχαιριά
TTITLE8=Ο χαλκάς της γης
TTITLE9=Ελα κορίτσι μου
TTITLE10=Μαναξιά και φτώχεια
TTITLE11=Ο γάτος
TTITLE12=Ο ποντικός
TTITLE13=Με κυνηγούν οι νόμοι
TTITLE14=Ντόρτια και δυάρες
TTITLE15=Στο πιό όμορφο χαρέμι
TTITLE16=Κόκκινο μαύρο
TTITLE17=Πάντα εσένα συλλογιέμαι
TTITLE18=Καρδια πληγωμένη
TTITLE19=Πάνω στην τρέλλα μου
TTITLE20=Εγινα μόνος μου γιατρός
TTITLE21=Το πικραμένο αηδόνι
TTITLE22=Το καραβι καρτερεί
EXTD=
EXTT0=
EXTT1=
EXTT2=
EXTT3=
EXTT4=
EXTT5=
EXTT6=
EXTT7=
EXTT8=
EXTT9=
EXTT10=
EXTT11=
EXTT12=
EXTT13=
EXTT14=
EXTT15=
EXTT16=
EXTT17=
EXTT18=
EXTT19=
EXTT20=
EXTT21=
EXTT22=
PLAYORDER=
